<!DOCTYPE svg PUBLIC "-//W3C//DTD SVG 20010904//EN" "http://www.w3.org/TR/2001/REC-SVG-20010904/DTD/svg10.dtd"[]><svg version="1.0" xmlns="http://www.w3.org/2000/svg" width="250" height="250" viewBox="0 0 300.000000 300.000000" preserveAspectRatio="xMidYMid meet"><metadata>Created by potrace 1.10, written by Peter Selinger 2001-2011</metadata><g transform="translate(0.000000,300.000000) scale(0.050000,-0.050000)" fill="#ffffff" stroke="none"><path d="M703 4837 c-266 -132 -265 -545 2 -675 l88 -42 2207 0 2207 0 88 42 c133 65 195 172 195 338 0 166 -62 273 -195 338 l-88 42 -2208 0 -2209 0 -87 -43z" /><path d="M703 3337 c-266 -132 -265 -545 2 -675 l88 -42 2207 0 2207 0 88 42 c133 65 195 172 195 338 0 166 -62 273 -195 338 l-88 42 -2208 0 -2209 0 -87 -43z" /><path d="M703 1837 c-266 -132 -265 -545 2 -675 l88 -42 2207 0 2207 0 88 42 c133 65 195 172 195 338 0 166 -62 273 -195 338 l-88 42 -2208 0 -2209 0 -87 -43z" /></g></svg>