<svg xmlns="http://www.w3.org/2000/svg" width="720" height="720" viewBox="0 0 720 720" version="1.1">
	<path d="M 313 23.153 C 303.375 23.621, 294.797 24.404, 293.938 24.893 C 293.079 25.382, 287.567 26.110, 281.688 26.510 C 275.810 26.911, 271 27.582, 271 28.001 C 271 28.420, 267.175 29.082, 262.500 29.471 C 257.825 29.861, 254 30.543, 254 30.988 C 254 31.433, 250.850 32.113, 247 32.500 C 243.150 32.887, 240 33.528, 240 33.926 C 240 34.324, 235.745 35.254, 230.545 35.994 C 225.345 36.733, 221.301 37.679, 221.559 38.095 C 221.816 38.512, 219.551 39.162, 216.525 39.540 C 213.499 39.918, 211.238 40.576, 211.501 41.002 C 211.764 41.428, 209.970 42.077, 207.513 42.446 C 205.057 42.814, 202.815 43.490, 202.532 43.947 C 202.250 44.405, 199.111 45.357, 195.558 46.063 C 192.004 46.770, 189.321 47.711, 189.595 48.154 C 189.870 48.598, 188.281 49.251, 186.065 49.606 C 183.849 49.960, 182.255 50.604, 182.522 51.036 C 182.790 51.469, 181.207 52.127, 179.004 52.499 C 176.802 52.871, 175 53.545, 175 53.995 C 175 54.446, 172.772 55.386, 170.050 56.084 C 167.327 56.782, 165.315 57.700, 165.578 58.126 C 165.841 58.551, 164.447 59.201, 162.481 59.570 C 160.515 59.938, 159.136 60.469, 159.416 60.749 C 159.931 61.264, 149.819 67.003, 144.750 69.073 C 143.238 69.690, 142 70.602, 142 71.098 C 142 71.594, 141.532 72, 140.960 72 C 139.918 72, 134.740 75.401, 132.207 77.748 C 131.466 78.435, 129.770 79.271, 128.437 79.605 C 127.104 79.940, 126.262 80.615, 126.566 81.107 C 126.870 81.598, 126.674 82, 126.130 82 C 125.587 82, 124.548 82.568, 123.821 83.263 C 123.095 83.958, 121.291 85.299, 119.814 86.244 C 117.050 88.012, 88.728 115, 89.636 115 C 89.915 115, 89.548 115.612, 88.821 116.361 C 88.095 117.109, 86.150 119.405, 84.500 121.462 C 82.850 123.519, 81.050 125.719, 80.500 126.351 C 79.950 126.983, 78.150 129.525, 76.500 132 C 74.850 134.475, 72.938 137.095, 72.250 137.821 C 71.563 138.548, 71 139.786, 71 140.571 C 71 141.357, 70.580 142, 70.067 142 C 69.554 142, 68.819 143.012, 68.433 144.250 C 68.046 145.488, 67.451 146.725, 67.110 147 C 66.769 147.275, 65.142 150.200, 63.495 153.500 C 61.848 156.800, 60.275 159.725, 59.999 160 C 58.996 161.002, 55.121 169.572, 54.461 172.250 C 54.088 173.762, 53.432 175, 53.003 175 C 52.574 175, 51.927 176.575, 51.566 178.500 C 51.205 180.425, 50.500 182, 50 182 C 49.500 182, 48.795 183.575, 48.434 185.500 C 48.073 187.425, 47.428 189, 47 189 C 46.572 189, 45.927 190.575, 45.566 192.500 C 45.205 194.425, 44.531 196, 44.068 196 C 43.605 196, 42.675 198.925, 42 202.500 C 41.325 206.075, 40.432 209, 40.016 209 C 39.599 209, 38.959 211.250, 38.594 214 C 38.230 216.750, 37.541 219, 37.064 219 C 36.587 219, 35.883 221.700, 35.500 225 C 35.117 228.300, 34.437 231, 33.990 231 C 33.542 231, 32.622 235.050, 31.946 240 C 31.269 244.950, 30.383 249, 29.976 249 C 29.569 249, 28.918 252.823, 28.529 257.496 C 28.140 262.169, 27.465 266.212, 27.031 266.481 C 26.596 266.750, 25.912 271.364, 25.512 276.735 C 25.111 282.106, 24.442 286.725, 24.025 287 C 23.017 287.665, 20.993 321.213, 20.997 337.191 C 20.999 344.577, 20.582 350.140, 20 350.500 C 19.442 350.845, 19 355.491, 19 361 C 19 366.509, 19.442 371.155, 20 371.500 C 20.578 371.857, 20.999 377.257, 20.997 384.309 C 20.994 399.960, 22.973 433.198, 23.986 434.500 C 24.414 435.050, 25.084 439.887, 25.475 445.250 C 25.867 450.613, 26.541 455, 26.975 455 C 27.409 455, 28.082 458.825, 28.471 463.500 C 28.861 468.175, 29.531 472, 29.961 472 C 30.391 472, 31.308 476.275, 32 481.500 C 32.692 486.725, 33.605 491, 34.030 491 C 34.456 491, 35.117 493.700, 35.500 497 C 35.883 500.300, 36.587 503, 37.064 503 C 37.541 503, 38.230 505.250, 38.594 508 C 38.959 510.750, 39.610 513, 40.041 513 C 40.472 513, 41.128 514.800, 41.500 517 C 41.872 519.200, 42.572 521, 43.057 521 C 43.541 521, 43.686 521.654, 43.379 522.454 C 43.073 523.253, 43.537 524.928, 44.411 526.176 C 45.285 527.424, 46 529.470, 46 530.723 C 46 531.975, 46.400 533, 46.889 533 C 47.377 533, 48.073 534.575, 48.434 536.500 C 48.795 538.425, 49.470 540, 49.934 540 C 50.398 540, 51.073 541.575, 51.434 543.500 C 51.795 545.425, 52.462 547, 52.915 547 C 53.369 547, 54.335 549.138, 55.063 551.750 C 55.790 554.362, 56.973 557.095, 57.692 557.821 C 58.412 558.548, 59 560.011, 59 561.071 C 59 562.132, 59.376 563, 59.836 563 C 60.670 563, 66 572.802, 66 574.336 C 66 574.780, 66.563 575.770, 67.250 576.537 C 69.579 579.134, 70.558 580.491, 72.994 584.500 C 74.331 586.700, 75.960 589.051, 76.615 589.723 C 77.269 590.396, 78.845 592.646, 80.116 594.723 C 83.035 599.490, 84.740 601.409, 99.794 616.872 C 106.556 623.817, 113.671 630.625, 115.604 632 C 117.538 633.375, 119.655 634.959, 120.310 635.521 C 120.964 636.082, 123.750 638.332, 126.500 640.521 C 129.250 642.709, 131.725 644.734, 132 645.020 C 132.275 645.307, 133.625 646.116, 135 646.819 C 141.081 649.929, 143 651.166, 143 651.975 C 143 652.451, 144.350 653.138, 146 653.500 C 147.650 653.862, 149 654.475, 149 654.861 C 149 655.247, 151.925 656.867, 155.500 658.462 C 159.075 660.056, 162 661.730, 162 662.181 C 162 662.631, 162.868 663, 163.929 663 C 164.989 663, 166.452 663.579, 167.179 664.286 C 167.905 664.993, 170.525 666.165, 173 666.889 C 175.475 667.614, 177.950 668.558, 178.500 668.988 C 179.050 669.417, 180.966 670.083, 182.759 670.466 C 184.551 670.849, 185.793 671.526, 185.519 671.969 C 185.245 672.413, 187.117 673.090, 189.679 673.475 C 192.507 673.899, 193.846 674.477, 193.086 674.947 C 192.340 675.408, 193.902 675.995, 196.952 676.399 C 199.767 676.773, 201.841 677.449, 201.561 677.902 C 201.281 678.355, 204.415 679.301, 208.526 680.004 C 212.637 680.708, 216 681.617, 216 682.026 C 216 682.435, 218.475 683.079, 221.500 683.457 C 224.525 683.835, 227 684.517, 227 684.974 C 227 685.430, 229.699 686.117, 232.998 686.500 C 236.298 686.883, 238.794 687.525, 238.545 687.927 C 238.297 688.329, 243.033 689.246, 249.071 689.964 C 255.108 690.682, 260.289 691.659, 260.583 692.135 C 260.877 692.611, 263.569 693, 266.564 693 L 272.009 693 271.755 587.250 L 271.500 481.500 239 481 L 206.500 480.500 206.500 427.500 L 206.500 374.500 239.122 374.236 L 271.745 373.973 272.309 336.736 C 272.838 301.800, 273.441 292.826, 275.250 292.949 C 277.212 293.083, 277.395 292.903, 276.122 292.096 C 275.049 291.417, 274.904 289.723, 275.468 284.458 C 275.984 279.638, 276.471 278.096, 277.162 279.096 C 277.875 280.130, 277.974 279.937, 277.535 278.367 C 276.437 274.435, 281.693 254.005, 283.235 256.215 C 283.818 257.051, 283.908 256.707, 283.491 255.228 C 282.712 252.462, 285.832 243.778, 287.283 244.675 C 287.883 245.046, 288.004 244.816, 287.575 244.122 C 286.040 241.638, 297.008 222.161, 305.551 212.202 C 307.579 209.838, 309.470 208.137, 309.754 208.421 C 310.038 208.705, 313.395 206.044, 317.214 202.508 C 328.900 191.689, 349.382 179.477, 363.317 175.021 C 365.416 174.350, 366.941 173.608, 366.706 173.372 C 366.470 173.137, 365.028 173.419, 363.500 174 C 361.972 174.581, 360.536 174.869, 360.307 174.640 C 359.925 174.258, 368.624 170.980, 369.928 171.015 C 370.243 171.024, 369.825 171.501, 369 172.076 C 367.069 173.422, 373.793 172.217, 376 170.822 C 377.055 170.155, 376.609 170.045, 374.500 170.451 C 372.490 170.837, 371.995 170.731, 373 170.129 C 373.825 169.634, 376.075 168.954, 378 168.617 C 380.678 168.149, 381.030 168.234, 379.500 168.979 C 376.842 170.273, 383.466 169.250, 389.864 167.378 L 394.500 166.022 390.500 166.564 C 388.300 166.862, 385.600 167.329, 384.500 167.601 C 382.621 168.066, 382.611 168.026, 384.333 166.951 C 385.342 166.322, 390.742 165.639, 396.333 165.434 C 401.925 165.229, 407.850 164.636, 409.500 164.116 C 413.819 162.756, 409.833 162.729, 402.586 164.069 C 399.406 164.657, 396.599 164.932, 396.348 164.681 C 395.744 164.078, 406.817 162.272, 415 161.640 C 419.580 161.286, 420.466 161.377, 418 161.948 C 413.757 162.930, 432.315 162.165, 442.500 160.938 C 448.400 160.228, 447.537 160.149, 437 160.435 C 428.327 160.671, 426.031 160.530, 429.500 159.975 C 435.890 158.953, 485.736 158.950, 493 159.971 C 496.668 160.487, 493.671 160.638, 484 160.425 C 471.913 160.160, 470.831 160.243, 477.500 160.927 C 489.379 162.144, 509.112 162.866, 505 161.932 C 502.589 161.385, 503.522 161.294, 508 161.641 C 511.575 161.917, 515.288 162.367, 516.250 162.639 C 517.887 163.103, 518 166.399, 518 213.727 L 518 264.319 496.250 263.731 C 483.688 263.391, 469.642 263.589, 463 264.199 C 456.675 264.780, 449.250 265.282, 446.500 265.314 C 443.750 265.346, 442.400 265.572, 443.500 265.816 C 444.948 266.138, 444.258 266.633, 441 267.608 C 438.525 268.350, 435.600 268.712, 434.500 268.413 C 433.133 268.041, 432.907 268.153, 433.787 268.766 C 434.712 269.412, 433.873 270.201, 430.796 271.582 C 428.444 272.637, 424.598 274.962, 422.251 276.750 C 416.876 280.843, 415.342 280.951, 420 276.909 C 421.925 275.239, 422.600 274.315, 421.500 274.857 C 420.400 275.398, 417.700 277.778, 415.500 280.145 C 413.300 282.513, 412.512 283.603, 413.750 282.570 C 414.988 281.536, 416 281.183, 416 281.786 C 416 282.389, 415.513 283.183, 414.917 283.551 C 413.132 284.655, 407.383 294.224, 406.047 298.317 C 405.361 300.416, 404.568 301.902, 404.285 301.618 C 404.001 301.334, 404.247 299.729, 404.832 298.051 C 406.049 294.562, 405.388 293.831, 404.109 297.250 C 402.075 302.685, 401.783 304.252, 402.933 303.541 C 404.112 302.813, 404.098 302.941, 402.021 311.500 C 401.052 315.494, 401.051 315.492, 401.513 310.500 C 402.106 304.089, 400.525 307.498, 399.658 314.500 C 399.317 317.250, 399.368 318.727, 399.769 317.781 C 400.171 316.836, 400.351 329.099, 400.170 345.031 L 399.839 374 453.705 374 L 507.571 374 507.667 379.750 C 507.750 384.739, 507.658 385.037, 506.971 382 C 506.429 379.605, 506.324 380.710, 506.638 385.500 C 506.890 389.350, 506.638 394.525, 506.079 397 C 505.093 401.363, 505.074 401.302, 505.467 395 C 505.805 389.596, 505.714 389.090, 504.932 392 C 504.415 393.925, 503.793 402.250, 503.550 410.500 C 503.307 418.750, 502.643 426.850, 502.075 428.500 C 501.216 430.994, 501.142 430.572, 501.634 426 C 501.960 422.975, 501.868 420.845, 501.431 421.266 C 500.993 421.687, 500.516 428.212, 500.370 435.766 C 500.224 443.320, 499.636 450.850, 499.062 452.500 C 498.139 455.156, 498.071 454.926, 498.473 450.500 C 498.861 446.231, 498.785 445.939, 497.955 448.500 C 497.420 450.150, 497.193 454.650, 497.450 458.500 C 497.793 463.629, 497.676 464.698, 497.014 462.500 C 496.311 460.166, 496.229 460.661, 496.646 464.731 C 496.941 467.607, 496.841 471.882, 496.424 474.231 C 495.727 478.157, 495.600 478.299, 494.847 476 C 494.202 474.029, 494.118 474.294, 494.451 477.250 L 494.874 481 447.437 481 L 400 481 400 590 L 400 699 408.441 699 C 413.084 699, 417.126 698.605, 417.425 698.121 C 417.724 697.638, 424.048 696.917, 431.480 696.519 C 438.911 696.121, 444.777 695.449, 444.516 695.025 C 444.254 694.602, 448.193 693.932, 453.270 693.536 C 458.346 693.141, 462.950 692.459, 463.500 692.021 C 464.050 691.583, 469.325 690.660, 475.221 689.970 C 481.118 689.280, 485.721 688.358, 485.451 687.920 C 485.180 687.483, 488.157 686.810, 492.066 686.425 C 495.974 686.040, 498.638 685.394, 497.984 684.990 C 497.331 684.586, 499.317 683.941, 502.398 683.556 C 505.479 683.171, 508 682.502, 508 682.070 C 508 681.637, 511.363 680.708, 515.474 680.004 C 519.585 679.301, 522.719 678.355, 522.439 677.902 C 522.159 677.449, 524.187 676.779, 526.946 676.413 C 529.705 676.047, 531.744 675.394, 531.477 674.962 C 531.210 674.531, 532.795 673.872, 535 673.500 C 537.205 673.128, 538.780 672.453, 538.500 672 C 538.220 671.547, 539.793 670.873, 541.996 670.501 C 544.198 670.129, 546 669.455, 546 669.005 C 546 668.554, 548.250 667.608, 551 666.903 C 553.750 666.199, 556 665.306, 556 664.919 C 556 664.533, 557.233 663.907, 558.740 663.529 C 560.247 663.151, 561.709 662.535, 561.990 662.161 C 562.626 661.312, 573.246 656, 574.307 656 C 574.734 656, 575.628 655.529, 576.292 654.953 C 578.390 653.134, 588.141 647, 588.934 647 C 589.352 647, 590.621 646.213, 591.754 645.250 C 592.887 644.288, 594.825 642.825, 596.062 642 C 597.299 641.175, 599.016 639.712, 599.878 638.750 C 600.740 637.788, 601.789 637, 602.211 637 C 604.467 637, 632.084 610.702, 635.816 605 C 636.716 603.625, 637.998 602.155, 638.666 601.734 C 639.334 601.312, 641.179 599.062, 642.767 596.734 C 644.354 594.405, 648.094 588.900, 651.077 584.500 C 654.059 580.100, 656.751 576.275, 657.057 576 C 657.363 575.725, 658.205 574.038, 658.928 572.250 C 659.651 570.462, 660.602 569, 661.042 569 C 661.481 569, 662.138 567.650, 662.500 566 C 662.862 564.350, 663.537 563, 664 563 C 664.463 563, 665.138 561.650, 665.500 560 C 665.862 558.350, 666.515 557, 666.949 557 C 667.384 557, 668.307 554.975, 669 552.500 C 669.693 550.025, 670.601 548, 671.019 548 C 671.436 548, 672.073 546.425, 672.434 544.500 C 672.795 542.575, 673.470 541, 673.934 541 C 674.398 541, 675.073 539.425, 675.434 537.500 C 675.795 535.575, 676.449 534, 676.886 534 C 677.324 534, 678.236 531.525, 678.913 528.500 C 679.590 525.475, 680.510 523, 680.958 523 C 681.406 523, 682.077 520.975, 682.448 518.500 C 682.819 516.025, 683.487 514, 683.932 514 C 684.378 514, 685.041 511.750, 685.406 509 C 685.770 506.250, 686.445 504, 686.906 504 C 687.366 504, 688.054 501.649, 688.435 498.775 C 688.817 495.901, 689.603 492.979, 690.182 492.280 C 690.762 491.582, 691 490.108, 690.712 489.005 C 690.423 487.902, 690.559 487, 691.014 487 C 691.469 487, 692.154 484.075, 692.537 480.500 C 692.920 476.925, 693.584 474, 694.012 474 C 694.441 474, 695.111 470.397, 695.500 465.994 C 695.890 461.591, 696.564 457.769, 696.998 457.501 C 697.432 457.233, 698.109 452.848, 698.504 447.757 C 698.899 442.666, 699.577 438.050, 700.011 437.500 C 700.935 436.329, 703 406.046, 703 393.659 C 703 388.961, 703.450 384.840, 704 384.500 C 704.620 384.117, 705 375.176, 705 361 C 705 346.824, 704.620 337.883, 704 337.500 C 703.450 337.160, 703 333.039, 703 328.341 C 703 315.954, 700.935 285.671, 700.011 284.500 C 699.577 283.950, 698.899 279.334, 698.504 274.243 C 698.109 269.152, 697.415 264.756, 696.960 264.476 C 696.506 264.195, 695.821 260.373, 695.438 255.983 C 695.055 251.592, 694.386 248, 693.950 248 C 693.515 248, 692.846 245.075, 692.463 241.500 C 692.080 237.925, 691.447 235, 691.057 235 C 690.666 235, 690.545 233.650, 690.787 232 C 691.029 230.350, 690.778 229, 690.229 229 C 689.680 229, 688.921 226.525, 688.543 223.500 C 688.165 220.475, 687.490 218, 687.042 218 C 686.594 218, 685.907 215.863, 685.516 213.250 C 685.124 210.638, 684.364 208.227, 683.826 207.894 C 683.288 207.561, 682.598 205.423, 682.293 203.144 C 681.987 200.865, 681.378 199, 680.940 199 C 680.502 199, 679.590 196.525, 678.913 193.500 C 678.236 190.475, 677.309 188, 676.853 188 C 676.397 188, 675.736 186.200, 675.384 184 C 675.032 181.800, 674.372 180, 673.918 180 C 673.463 180, 672.795 178.425, 672.434 176.500 C 672.073 174.575, 671.377 173, 670.889 173 C 670.400 173, 670 172.444, 670 171.764 C 670 170.372, 664.891 159.777, 663.839 158.990 C 663.465 158.709, 662.849 157.247, 662.471 155.740 C 662.093 154.233, 661.437 153, 661.013 153 C 660.589 153, 659.642 151.537, 658.908 149.750 C 658.174 147.963, 657.199 146.050, 656.740 145.500 C 656.281 144.950, 654.443 142.250, 652.656 139.500 C 639.226 118.839, 622.504 100.601, 601.309 83.500 C 600.627 82.950, 599.449 81.985, 598.691 81.356 C 597.933 80.727, 595.868 79.466, 594.103 78.553 C 592.338 77.640, 590.093 76.130, 589.114 75.197 C 587.522 73.679, 582.284 70.612, 573.501 66.056 C 571.851 65.200, 570.276 64.223, 570.001 63.885 C 569.725 63.546, 568.487 62.954, 567.250 62.567 C 566.013 62.181, 565 61.446, 565 60.933 C 565 60.420, 564.132 60, 563.071 60 C 562.011 60, 560.548 59.412, 559.821 58.692 C 559.095 57.973, 556.362 56.790, 553.750 56.063 C 551.138 55.335, 549 54.388, 549 53.958 C 549 53.528, 547.198 52.871, 544.996 52.499 C 542.793 52.127, 541.220 51.453, 541.500 51 C 541.780 50.547, 540.205 49.872, 538 49.500 C 535.795 49.128, 534.214 48.463, 534.486 48.023 C 534.757 47.584, 533.060 46.936, 530.713 46.584 C 528.367 46.232, 525.258 45.328, 523.805 44.574 C 522.352 43.820, 519.327 42.893, 517.082 42.514 C 514.837 42.135, 513 41.466, 513 41.027 C 513 40.589, 510.519 39.920, 507.486 39.542 C 504.454 39.163, 502.187 38.506, 502.449 38.082 C 502.711 37.658, 499.115 36.744, 494.457 36.051 C 489.800 35.358, 485.768 34.434, 485.498 33.997 C 485.229 33.561, 481.856 32.887, 478.004 32.500 C 474.152 32.114, 471 31.440, 471 31.005 C 471 30.569, 466.950 29.892, 462 29.500 C 457.050 29.108, 453 28.429, 453 27.990 C 453 27.551, 448.163 26.871, 442.250 26.479 C 436.337 26.086, 431.050 25.413, 430.500 24.982 C 427.353 22.517, 350.624 21.323, 313 23.153 M 513 163.849 L 515.500 164.590 515.760 212.980 C 515.964 251.029, 515.750 261.541, 514.760 262.170 C 513.854 262.745, 513.995 262.974, 515.259 262.985 C 516.919 262.999, 517.004 260.168, 516.759 213.250 L 516.500 163.500 513.500 163.304 C 510.706 163.121, 510.672 163.159, 513 163.849 M 327.394 191.689 C 319.608 197.557, 310 206.153, 310 207.250 C 310 207.803, 312.363 205.968, 315.250 203.171 C 318.137 200.375, 323.200 196.001, 326.500 193.450 C 333.309 188.189, 333.528 188, 332.810 188 C 332.523 188, 330.085 189.660, 327.394 191.689 M 503.500 262 L 499.500 262.716 504.309 262.858 C 507.292 262.946, 508.883 262.620, 508.500 262 C 508.160 261.450, 507.796 261.064, 507.691 261.142 C 507.586 261.220, 505.700 261.606, 503.500 262 M 273.234 346.236 L 273 374.973 240.250 375.236 L 207.500 375.500 207.486 428 L 207.473 480.500 207.745 428.250 L 208.018 376 240.540 376 C 265.821 376, 273.171 375.719, 273.548 374.737 C 273.814 374.042, 273.905 360.879, 273.750 345.487 L 273.467 317.500 273.234 346.236 M 398.232 349.750 L 398 376 452.750 375.759 L 507.500 375.518 453.267 375.250 L 399.034 374.983 398.749 349.241 L 398.465 323.500 398.232 349.750 M 272.751 548.250 C 272.889 585.787, 273.120 633.600, 273.263 654.500 C 273.407 675.400, 273.631 644.688, 273.762 586.250 C 273.893 527.813, 273.663 480, 273.250 480 C 272.837 480, 272.613 510.712, 272.751 548.250 M 397.235 588.750 C 397.364 648.563, 397.588 683.775, 397.733 667 C 398.414 588.043, 398.424 480, 397.750 480 C 397.337 480, 397.106 528.938, 397.235 588.750" stroke="none" fill="#f7f7f7" fill-rule="evenodd"/>
</svg>