<svg xmlns="http://www.w3.org/2000/svg" width="720" height="720" viewBox="0 0 720 720" version="1.1">
	<path d="M 318 22.581 C 184.936 33.138, 107.553 74.456, 63.492 158.472 C 44.103 195.441, 32.343 239.842, 25.872 300.500 C 22.757 329.703, 22.753 387.529, 25.864 417 C 30.739 463.177, 37.180 493.363, 49.229 526.500 C 58.476 551.934, 70.012 573.638, 84.517 592.893 C 93.080 604.261, 110.158 621.974, 121 630.733 C 148.356 652.834, 185.842 670.637, 226.876 681.017 C 252.223 687.429, 269.908 690.410, 304 694.018 C 322.952 696.024, 361.146 696.949, 384.768 695.974 C 430.329 694.094, 461.504 689.614, 503.250 678.948 C 514.259 676.135, 536.670 667.992, 548.839 662.383 C 552.876 660.522, 556.362 659, 556.587 659 C 557.397 659, 575.623 648.668, 581 645.162 C 601.721 631.647, 623.526 611.525, 637.220 593.279 C 675.823 541.847, 696.160 468.530, 698.598 372 C 699.741 326.736, 695.235 277.177, 686.414 238 C 673.574 180.967, 652.276 137.998, 620.566 105.143 C 588.292 71.706, 548.349 50.277, 491 35.634 C 484.107 33.874, 480.994 33.229, 463.500 29.934 C 422.336 22.182, 361.673 19.116, 318 22.581 M 218 160 C 217.175 160.533, 215.548 160.976, 214.384 160.985 C 210.105 161.016, 198.374 167.911, 193.083 173.506 C 173.613 194.092, 177.219 231.220, 200.137 246.149 C 209.370 252.163, 214.145 253.494, 226.500 253.497 C 235.802 253.500, 238.426 253.128, 243.500 251.089 C 257.581 245.432, 266.949 234.810, 271.129 219.763 C 279.636 189.134, 257.129 158.940, 225.846 159.015 C 222.356 159.024, 218.825 159.467, 218 160 M 457.500 287.007 C 445.610 288.808, 428.682 296.280, 418.175 304.365 C 411.834 309.245, 400.898 320.671, 398.203 325.233 C 397.304 326.755, 396.216 328, 395.784 328 C 395.353 328, 395 320.125, 395 310.500 L 395 293 356 293 L 317 293 317 425.500 L 317 558 357.466 558 L 397.932 558 398.216 477.750 L 398.500 397.500 400.876 391.109 C 402.184 387.595, 404.831 382.070, 406.759 378.833 C 419.300 357.780, 447.470 349.842, 467.685 361.666 C 474.868 365.867, 478.114 370.192, 484.076 383.500 C 487.016 390.062, 487.367 399.192, 487.697 477.750 L 488.035 558 528.017 558 L 568 558 567.929 470.750 C 567.859 384.560, 567.525 373.249, 564.650 359.468 C 559.484 334.706, 546.780 314.263, 529 302.103 C 516.687 293.681, 505 289.003, 491.338 287.028 C 483.519 285.898, 464.899 285.886, 457.500 287.007 M 186.500 425.500 L 186.500 558 226.750 558 L 267 558 267 425.500 L 267 293 226.750 293 L 186.500 293 186.500 425.500 M 396.402 308 C 396.402 316.525, 396.556 320.012, 396.743 315.750 C 396.931 311.488, 396.931 304.512, 396.743 300.250 C 396.556 295.988, 396.402 299.475, 396.402 308" stroke="none" fill="#f7f7f7" fill-rule="evenodd"/>
</svg>