<?xml version="1.0" encoding="UTF-8"?>
<svg version="1.1" xmlns="http://www.w3.org/2000/svg" width="250" height="186">
<path d="M0 0 C1.59521484 0.76763672 1.59521484 0.76763672 3.22265625 1.55078125 C6.25128592 4.22159814 6.40798743 4.50464761 6.6640625 8.265625 C6.67996138 9.92705829 6.66594927 11.58899534 6.625 13.25 C6.50850002 20.67104876 7.16668816 26.85326439 12.41235352 32.52783203 C16.56923823 36.19962487 20.03320626 38.10025955 25.6015625 37.81640625 C26.25092773 37.76597168 26.90029297 37.71553711 27.56933594 37.66357422 C31.96558607 37.44741655 36.1533776 37.40518974 39.62207031 40.40087891 C42.88211133 44.39624273 45.24301682 48.93884665 47.63623047 53.48730469 C49.97456299 57.79559655 52.66334532 61.87845402 55.3125 66 C56.7382086 68.26878209 58.16082596 70.53805746 59.55932617 72.82373047 C60.94541613 75.02465348 60.94541613 75.02465348 62.66918945 76.89892578 C68.4940828 83.8977552 67.81088736 91.65946917 67.61743164 100.32226562 C67.5621725 102.89021913 67.55590677 105.4549475 67.55664062 108.0234375 C67.5419086 109.65888228 67.52442952 111.29430514 67.50390625 112.9296875 C67.50056778 113.69529999 67.49722931 114.46091248 67.49378967 115.24972534 C67.35477354 120.4174975 67.35477354 120.4174975 65.96385193 122.70125103 C62.89459497 124.73103456 59.70053525 124.40876182 56.14257812 124.3742218 C55.33358818 124.37819621 54.52459824 124.38217061 53.69109344 124.38626546 C50.9709687 124.39591638 48.25136044 124.3840536 45.53125 124.37231445 C43.58495896 124.3747415 41.63866916 124.37845997 39.69238281 124.38337708 C34.39907315 124.39280166 29.10594788 124.38334746 23.81265259 124.37004495 C18.28070031 124.35874994 12.74875737 124.36283644 7.21679688 124.36479187 C-2.07424949 124.36567546 -11.36522299 124.35458079 -20.65625 124.33618164 C-31.40752365 124.31501304 -42.15869051 124.31150376 -52.90998077 124.3177436 C-63.2400504 124.32343269 -73.5700823 124.31779697 -83.90014648 124.30657005 C-88.30200903 124.30191803 -92.70384855 124.30105282 -97.10571289 124.3031559 C-102.28654369 124.30503563 -107.46726537 124.29695922 -112.64807129 124.2810955 C-114.55285185 124.27684268 -116.45764347 124.27600877 -118.36242676 124.27878571 C-120.95593145 124.28199384 -123.54910726 124.2729604 -126.14257812 124.26069641 C-126.902201 124.26447573 -127.66182388 124.26825506 -128.44446564 124.27214891 C-132.17923922 124.24075541 -133.80936582 124.12708945 -137 122 C-138.79305624 116.62083128 -138.30538087 110.8032603 -138.35009766 105.16894531 C-138.36658431 103.65023395 -138.39377765 102.13159782 -138.43212891 100.61328125 C-138.65821987 91.60109884 -138.57031245 84.50352739 -133 77 C-132.11094418 75.60030029 -131.22815173 74.19660322 -130.3515625 72.7890625 C-129.44563461 71.39912999 -128.53672438 70.01113722 -127.625 68.625 C-126.65326391 67.13696809 -125.68190947 65.64868688 -124.7109375 64.16015625 C-124.01242676 63.09112061 -124.01242676 63.09112061 -123.29980469 62.00048828 C-121.5909687 59.37047287 -119.91940093 56.7176784 -118.25 54.0625 C-117.69957031 53.22074219 -117.14914063 52.37898438 -116.58203125 51.51171875 C-114.94264228 48.98461925 -114.94264228 48.98461925 -113.51171875 46.14453125 C-111.86972966 43.25577129 -110.5304419 41.16384077 -108 39 C-104.38796403 38.22414502 -101.07321524 38.12503412 -97.3828125 38.11328125 C-92.02728963 37.93393926 -88.43523547 36.16604492 -84.48046875 32.6484375 C-79.08192143 26.8298303 -78.68450725 19.587395 -78.375 12.0625 C-78.33632812 11.28326172 -78.29765625 10.50402344 -78.2578125 9.70117188 C-78.16455873 7.80112621 -78.08124038 5.90059722 -78 4 C-55.1851486 -7.92857713 -23.82067551 -13.12567834 0 0 Z M-60.9765625 37.00390625 C-67.64843521 44.93917613 -70.76884006 53.62610108 -70.390625 64 C-69.45713435 71.1692082 -67.40600263 77.0937119 -62 82 C-61.505 79.03 -61.505 79.03 -61 76 C-58.6739143 75.61936779 -56.33944736 75.28730055 -54 75 C-53 76 -53 76 -52.9375 79.5625 C-52.958125 80.696875 -52.97875 81.83125 -53 83 C-56.465 83.495 -56.465 83.495 -60 84 C-60 84.66 -60 85.32 -60 86 C-55.49459884 89.68441695 -50.66177782 92.5482621 -45 94 C-45.33 93.46375 -45.66 92.9275 -46 92.375 C-47.22699204 89.4608939 -47.14233286 87.13132292 -47 84 C-44.03 84 -41.06 84 -38 84 C-37.875 87.375 -37.875 87.375 -38 91 C-39.95216435 92.95216435 -41.53199953 93.84826645 -44 95 C-32.59527165 96.65199381 -23.50943469 95.54026272 -14.01953125 88.68359375 C-10.99217722 86.15982278 -7.93460688 83.47388106 -6 80 C-6.79759068 76.80584026 -6.79759068 76.80584026 -9.5625 74.625 C-12 72 -12 72 -12.3125 69.1875 C-12.1578125 68.1046875 -12.1578125 68.1046875 -12 67 C-9.02148438 67.04882812 -9.02148438 67.04882812 -6.04296875 67.09765625 C-3.79694539 67.08263217 -3.79694539 67.08263217 -1 66 C-0.352553 54.52580038 -1.61543326 46.74282084 -9 37.75 C-15.05931077 31.36913377 -23.34025772 26.60755544 -32.2265625 25.796875 C-43.461479 25.57730008 -52.99839908 28.91537298 -60.9765625 37.00390625 Z " fill="#FFFFFF" transform="translate(165,62)"/>
<path d="M0 0 C0.83349976 0.00182281 1.66699951 0.00364563 2.52575684 0.00552368 C14.96520059 0.05127227 27.09281957 0.43463265 39.25 3.3125 C40.00539062 3.48942383 40.76078125 3.66634766 41.5390625 3.84863281 C62.00100444 8.80158615 80.44747967 16.40906202 97.25 29.3125 C98.39275391 30.10914063 98.39275391 30.10914063 99.55859375 30.921875 C100.11675781 31.38078125 100.67492187 31.8396875 101.25 32.3125 C101.25 32.9725 101.25 33.6325 101.25 34.3125 C101.82234375 34.55613281 102.3946875 34.79976562 102.984375 35.05078125 C107.89287419 37.78430752 111.40670873 42.00092681 113.25 47.3125 C114.49088557 55.45738299 115.20057738 65.68061535 111.95703125 73.3828125 C109.62707366 76.01667761 107.53441695 77.15812051 104.02505493 77.57992554 C103.21708466 77.58754913 102.40911438 77.59517273 101.57666016 77.60302734 C100.19469955 77.6221669 100.19469955 77.6221669 98.78482056 77.64169312 C97.7962204 77.64391876 96.80762024 77.64614441 95.7890625 77.6484375 C94.76573822 77.6550943 93.74241394 77.6617511 92.68807983 77.66860962 C90.52449337 77.67872899 88.36087573 77.68342686 86.19726562 77.68310547 C82.89400559 77.68747486 79.59208587 77.72379259 76.2890625 77.76171875 C74.18490039 77.76758785 72.08073195 77.77155662 69.9765625 77.7734375 C68.49973495 77.79499405 68.49973495 77.79499405 66.99307251 77.81698608 C61.10869567 77.77795239 57.73026149 77.23855891 53.25 73.3125 C51.9882807 70.7890614 52.20145311 69.1497037 52.28515625 66.33203125 C52.81739385 55.4034778 52.81739385 55.4034778 49.3828125 45.41015625 C46.73484883 43.54473776 44.29085543 42.42047126 41.25 41.3125 C40.30125 40.85617188 39.3525 40.39984375 38.375 39.9296875 C17.07841659 30.01771384 -9.84005476 29.3700468 -31.91577148 37.31030273 C-34.92853556 38.50509307 -37.83397958 39.90064017 -40.75 41.3125 C-42.29107422 41.90998047 -42.29107422 41.90998047 -43.86328125 42.51953125 C-47.18691738 44.15079255 -48.7280646 45.17827496 -50.75 48.3125 C-51.82169676 53.62866494 -51.6940192 58.98174168 -51.58984375 64.37890625 C-51.58244748 68.73859903 -52.17174278 71.66141091 -54.75 75.3125 C-57.70583132 77.1637037 -59.98081666 77.56751032 -63.43920898 77.5871582 C-64.36374374 77.59669022 -65.2882785 77.60622223 -66.24082947 77.61604309 C-67.23256668 77.61513168 -68.22430389 77.61422028 -69.24609375 77.61328125 C-70.2717897 77.61756638 -71.29748566 77.6218515 -72.35426331 77.62626648 C-74.5220567 77.63200583 -76.68986936 77.63251296 -78.85766602 77.62817383 C-82.17172144 77.62501504 -85.48488312 77.64847446 -88.79882812 77.67382812 C-90.90624887 77.67610129 -93.01367202 77.67680454 -95.12109375 77.67578125 C-96.11080673 77.684991 -97.10051971 77.69420074 -98.120224 77.70368958 C-106.82489902 77.64524357 -106.82489902 77.64524357 -110.75 74.3125 C-115.50912247 67.17381629 -113.93259056 54.54745337 -112.75 46.3125 C-111.07102261 41.47632731 -107.64391211 38.49524852 -103.75 35.3125 C-102.99203125 34.54679687 -102.2340625 33.78109375 -101.453125 32.9921875 C-75.54226416 7.34217425 -34.93661838 -0.15918342 0 0 Z " fill="#FFFFFF" transform="translate(128.75,13.6875)"/>
<path d="M0 0 C5.30463837 6.00227071 6.37319208 11.1135242 6.26953125 18.92578125 C5.79022033 24.39270435 4.10360601 28.0656983 0.05859375 31.78515625 C-7.05574636 37.3272665 -13.11309436 37.57122261 -22 37 C-27.8520442 35.26606098 -31.5679765 30.8990098 -35 26 C-37.81802299 19.01620389 -37.77970241 12.74252708 -34.90625 5.8515625 C-32.22540185 0.37431239 -28.45902534 -2.59371909 -23 -5 C-14.57549146 -7.38083937 -6.62139116 -5.65487001 0 0 Z " fill="#FFFFFF" transform="translate(145,107)"/>
<path d="M0 0 C1.875 1.0625 1.875 1.0625 3 3 C2.6875 6.6875 2.6875 6.6875 2 10 C-4.42548263 11.33359073 -4.42548263 11.33359073 -6.9375 9.875 C-8.36066991 7.36352369 -8.42674516 5.84496772 -8 3 C-5.85607122 -0.27231235 -3.76836426 -0.56525464 0 0 Z " fill="#FFFFFF" transform="translate(142,144)"/>
<path d="M0 0 C0.66 0.66 1.32 1.32 2 2 C1.42307692 8.57692308 1.42307692 8.57692308 0 10 C-3.4375 10.25 -3.4375 10.25 -7 10 C-9.14762184 6.77856724 -9.561068 5.7404533 -9 2 C-6.07557433 -1.24936186 -4.04996841 -1.38551551 0 0 Z " fill="#FFFFFF" transform="translate(105,121)"/>
<path d="M0 0 C1.7325 0.1546875 1.7325 0.1546875 3.5 0.3125 C5.5 3.3125 5.5 3.3125 5.1875 6.4375 C4.5 9.3125 4.5 9.3125 3.5 10.3125 C0.0625 10.5 0.0625 10.5 -3.5 10.3125 C-5.5 8.3125 -5.5 8.3125 -5.75 5.3125 C-5.37833659 0.85253908 -4.40663794 0.39344982 0 0 Z " fill="#FFFFFF" transform="translate(149.5,97.6875)"/>
<path d="M0 0 C1.875 1.6875 1.875 1.6875 3 4 C2.75925978 7.37036311 2.41201979 8.58798021 0 11 C-3.625 10.625 -3.625 10.625 -7 10 C-8.33359073 3.57451737 -8.33359073 3.57451737 -6.875 1.0625 C-4.33639987 -0.37604008 -2.87213496 -0.50262362 0 0 Z " fill="#FFFFFF" transform="translate(120,92)"/>
<path d="M0 0 C2.9375 0.375 2.9375 0.375 4.9375 2.375 C5.27083333 7.70833333 5.27083333 7.70833333 3.9375 10.375 C1.2975 10.375 -1.3425 10.375 -4.0625 10.375 C-5.25 7.625 -5.25 7.625 -6.0625 4.375 C-4.61058514 0.92670221 -3.72304593 0.45588318 0 0 Z " fill="#FFFFFF" transform="translate(105.0625,103.625)"/>
<path d="M0 0 C3 0.1875 3 0.1875 5 1.1875 C5 3.8275 5 6.4675 5 9.1875 C2.25 10.375 2.25 10.375 -1 11.1875 C-3.375 10.1875 -3.375 10.1875 -5 8.1875 C-5.375 5.125 -5.375 5.125 -5 2.1875 C-3 0.1875 -3 0.1875 0 0 Z " fill="#FFFFFF" transform="translate(134,89.8125)"/>
</svg>
